<svg width="25" height="24" viewBox="0 0 25 24" fill="none" xmlns="http://www.w3.org/2000/svg">
<g clip-path="url(#clip0_252_98)">
<path d="M22.4382 20H2.76877C2.30075 19.9969 1.85278 19.8076 1.52176 19.4731C1.19074 19.1386 1.0033 18.6859 1 18.2128L1 7.05425C1.00311 6.58114 1.19036 6.12829 1.52124 5.79368C1.85211 5.45907 2.30001 5.26959 2.76803 5.26625H22.4382C22.9062 5.26939 23.3542 5.45868 23.6852 5.79315C24.0163 6.12763 24.2037 6.58039 24.207 7.0535V18.2142C24.2071 18.4488 24.1615 18.681 24.0727 18.8977C23.984 19.1144 23.8539 19.3113 23.6898 19.4772C23.5258 19.643 23.331 19.7746 23.1166 19.8643C22.9022 19.954 22.6725 20.0001 22.4405 20H22.4382ZM2.76877 6.45875H2.76358C2.60872 6.45875 2.4602 6.52094 2.3507 6.63163C2.2412 6.74232 2.17968 6.89246 2.17968 7.049V18.2203C2.17968 18.5465 2.44084 18.8105 2.76358 18.8105H22.4442C22.599 18.8105 22.7475 18.7483 22.857 18.6376C22.9665 18.5269 23.0281 18.3768 23.0281 18.2203V7.049C23.0281 6.89246 22.9665 6.74232 22.857 6.63163C22.7475 6.52094 22.599 6.45875 22.4442 6.45875H22.4382H2.76877ZM17.816 3.43025V3.43325C17.816 3.60312 17.7492 3.76603 17.6304 3.88615C17.5116 4.00627 17.3504 4.07375 17.1824 4.07375H8.02613C7.85809 4.07375 7.69692 4.00627 7.5781 3.88615C7.45927 3.76603 7.39252 3.60312 7.39252 3.43325V3.42725C7.39252 3.07325 7.67668 2.78675 8.02613 2.78675H17.1794C17.3457 2.79442 17.5031 2.86458 17.6208 2.98347C17.7386 3.10237 17.8082 3.26219 17.816 3.43025ZM20.0329 3.90725V3.91775C20.0329 4.45175 19.6048 4.8845 19.0765 4.8845H19.0654H19.0557C18.8022 4.8843 18.559 4.78238 18.3797 4.60113C18.2004 4.41987 18.0996 4.17409 18.0994 3.91775V3.9065V2.96675C18.0994 2.43275 18.5275 2 19.0557 2H19.0669H19.0765C19.6048 2 20.0329 2.43275 20.0329 2.96675V2.978V2.97725V3.90725ZM7.10836 3.90725V3.91775C7.10836 4.45175 6.68026 4.8845 6.152 4.8845H6.14087H6.13123C5.87765 4.8843 5.63451 4.78238 5.4552 4.60113C5.27589 4.41987 5.17507 4.17409 5.17487 3.91775V3.9065V2.96675C5.17487 2.43275 5.60297 2 6.13123 2H6.14236H6.14161H6.152C6.68026 2 7.10836 2.43275 7.10836 2.96675V2.978V2.97725V3.90725ZM23.123 3.43025V3.43325C23.123 3.60312 23.0563 3.76603 22.9375 3.88615C22.8186 4.00627 22.6575 4.07375 22.4894 4.07375H20.9039C20.7359 4.07375 20.5747 4.00627 20.4559 3.88615C20.337 3.76603 20.2703 3.60312 20.2703 3.43325V3.42725C20.2703 3.07325 20.5545 2.78675 20.9039 2.78675H22.4865C22.6527 2.79442 22.8102 2.86458 22.9279 2.98347C23.0457 3.10237 23.1153 3.26219 23.123 3.43025ZM4.91519 3.43025V3.43325C4.91519 3.60312 4.84844 3.76603 4.72961 3.88615C4.61079 4.00627 4.44963 4.07375 4.28158 4.07375H2.71906C2.55102 4.07375 2.38986 4.00627 2.27103 3.88615C2.15221 3.76603 2.08545 3.60312 2.08545 3.43325V3.42725C2.08545 3.07325 2.36961 2.78675 2.71906 2.78675H4.30161C4.46556 2.79513 4.62019 2.86634 4.73403 2.98588C4.84788 3.10542 4.91314 3.26432 4.91519 3.43025Z" fill="white"/>
<path d="M5.19869 12.9185V14.4185H6.6373V12.9185H7.50982V16.829H6.6373V15.1835H5.19869V16.829H4.32617V12.9185H5.19869ZM11.8264 14.8273C11.8531 15.0892 11.8251 15.354 11.7442 15.6043C11.6634 15.8547 11.5314 16.0851 11.357 16.2807C11.1825 16.4762 10.9694 16.6326 10.7314 16.7398C10.4934 16.8469 10.2358 16.9023 9.97527 16.9025L9.9122 16.9018H9.91517H9.89366C9.64112 16.9019 9.39139 16.8483 9.16063 16.7447C8.92987 16.641 8.72323 16.4894 8.55409 16.2999C8.38496 16.1103 8.25711 15.8869 8.17883 15.6442C8.10055 15.4015 8.07357 15.1449 8.09966 14.891L8.09891 14.8985C8.07714 14.6376 8.1092 14.3749 8.19305 14.1271C8.2769 13.8793 8.41073 13.6518 8.58605 13.459C8.76138 13.2662 8.97439 13.1122 9.2116 13.0069C9.44881 12.9016 9.70507 12.8473 9.96414 12.8473H9.98714H9.98566L10.0309 12.8465C10.2813 12.8465 10.529 12.8993 10.7581 13.0015C10.9873 13.1037 11.1928 13.2531 11.3615 13.4401C11.5303 13.6272 11.6586 13.8478 11.7383 14.0878C11.8179 14.3278 11.8472 14.5819 11.8242 14.834L11.8249 14.8273H11.8264ZM9.0434 14.8745C9.0434 15.638 9.39953 16.1855 9.9864 16.1855C10.5733 16.1855 10.9064 15.6133 10.9064 14.8505C10.9064 14.135 10.5762 13.5395 9.9634 13.5395C9.3743 13.538 9.0434 14.111 9.0434 14.873V14.8745ZM13.0053 13.658H11.9681V12.9185H14.9403V13.658H13.8793V16.829H13.0068L13.0053 13.658ZM17.6988 15.1595H16.2839V16.0895H17.8865V16.805H15.3877V12.9185H17.7693V13.634H16.2602V14.4448H17.6751V15.1603L17.6988 15.1595ZM18.4771 12.9185H19.3496V16.0895H20.8825V16.829H18.4771V12.9185ZM12.6047 10.4165L11.3308 11.1103L11.5682 9.68002L10.5525 8.65027L11.9674 8.43577L12.6039 7.15027L13.2405 8.43802L14.6554 8.65252L13.6412 9.67777L13.8786 11.108L12.6047 10.4165ZM17.0148 10.5823L16.048 11.1065L16.2365 10.01L15.4574 9.24727L16.5184 9.10477L17.0133 8.10352L17.4851 9.10477L18.5698 9.24727L17.7916 10.0108L17.9563 11.1073L17.0148 10.5823ZM19.8208 10.7735L19.1842 11.1073L19.3029 10.3918L18.7843 9.89152L19.4921 9.77152L19.8222 9.12802L20.1294 9.77152L20.8372 9.89152L20.3423 10.3918L20.461 11.1073L19.8208 10.7735ZM8.21762 10.5823L9.16062 11.1065L8.97217 10.01L9.75046 9.24652L8.68949 9.10402L8.21837 8.10352L7.72349 9.10477L6.66178 9.24727L7.44007 10.0108L7.25162 11.1073L8.21762 10.5823ZM5.38788 10.7735L6.02446 11.1073L5.90575 10.3918L6.42437 9.89152L5.71656 9.77152L5.38714 9.12802L5.07998 9.77152L4.37217 9.89152L4.89078 10.3918L4.77208 11.1073L5.38788 10.7735Z" fill="white"/>
</g>
<defs>
<clipPath id="clip0_252_98">
<rect width="23" height="18" fill="white" transform="translate(1 2)"/>
</clipPath>
</defs>
</svg>
