<svg width="16" height="15" viewBox="0 0 16 15" fill="none" xmlns="http://www.w3.org/2000/svg">
<path d="M15 0C15.5523 0 16 0.447715 16 1V11.2208C16 11.7731 15.5523 12.2208 15 12.2208H6.1305C5.86212 12.2208 5.60501 12.3287 5.41698 12.5202L3.71352 14.2549C3.08624 14.8938 2 14.4496 2 13.5543V13.2208C2 12.6685 1.55228 12.2208 1 12.2208V12.2208C0.447715 12.2208 0 11.7731 0 11.2208V0.999999C0 0.447715 0.447715 0 1 0H15ZM2 1.0184C1.44772 1.0184 1 1.46611 1 2.0184V2.0552C1 2.60748 1.44772 3.0552 2 3.0552H14C14.5523 3.0552 15 2.60748 15 2.0552V2.0184C15 1.46611 14.5523 1.0184 14 1.0184H2ZM14 11.2024C14.5523 11.2024 15 10.7547 15 10.2024V5.0736C15 4.52131 14.5523 4.0736 14 4.0736H2C1.44772 4.0736 1 4.52131 1 5.0736V10.2024C1 10.7547 1.44772 11.2024 2 11.2024H2.32345C2.6971 11.2024 3 11.5053 3 11.8789V11.8789C3 12.4847 3.7349 12.7851 4.15928 12.353L4.9951 11.5018C5.18314 11.3103 5.44025 11.2024 5.70863 11.2024H14ZM10 6.09199C10 5.53971 10.4477 5.09199 11 5.09199H13C13.5523 5.09199 14 5.53971 14 6.09199V9.18399C14 9.73627 13.5523 10.184 13 10.184H11C10.4477 10.184 10 9.73627 10 9.18399V6.09199ZM11 8.16559C11 8.71787 11.4477 9.16559 12 9.16559V9.16559C12.5523 9.16559 13 8.71787 13 8.16559V7.11039C13 6.55811 12.5523 6.11039 12 6.11039V6.11039C11.4477 6.11039 11 6.55811 11 7.11039V8.16559ZM2 6.61959C2 6.33837 2.22798 6.11039 2.5092 6.11039H8.4908C8.77202 6.11039 9 6.33837 9 6.61959V6.61959C9 6.90081 8.77202 7.12879 8.4908 7.12879H2.5092C2.22798 7.12879 2 6.90081 2 6.61959V6.61959ZM2 8.65639C2 8.37517 2.22798 8.14719 2.5092 8.14719H8.4908C8.77202 8.14719 9 8.37517 9 8.65639V8.65639C9 8.93761 8.77202 9.16559 8.4908 9.16559H2.5092C2.22798 9.16559 2 8.93761 2 8.65639V8.65639Z" fill="white"/>
</svg>
