<svg width="20" height="16" viewBox="0 0 20 16" fill="none" xmlns="http://www.w3.org/2000/svg">
<path d="M17.2727 4.44444V2.66667C17.2727 1.2 16.0455 0 14.5455 0H5.45455C3.95455 0 2.72727 1.2 2.72727 2.66667V4.44444C1.22727 4.44444 0 5.64444 0 7.11111V11.5556C0 13.0222 1.22727 14.2222 2.72727 14.2222V15.1111C2.72727 15.6 3.13636 16 3.63636 16C4.13636 16 4.54545 15.6 4.54545 15.1111V14.2222H15.4545V15.1111C15.4545 15.6 15.8636 16 16.3636 16C16.8636 16 17.2727 15.6 17.2727 15.1111V14.2222C18.7727 14.2222 20 13.0222 20 11.5556V7.11111C20 5.64444 18.7727 4.44444 17.2727 4.44444ZM4.54545 2.66667C4.54545 2.17778 4.95455 1.77778 5.45455 1.77778H14.5455C15.0455 1.77778 15.4545 2.17778 15.4545 2.66667V5.13778C14.9 5.62667 14.5455 6.32889 14.5455 7.11111V8.88889H5.45455V7.11111C5.45455 6.32889 5.1 5.62667 4.54545 5.13778V2.66667ZM18.1818 11.5556C18.1818 12.0444 17.7727 12.4444 17.2727 12.4444H2.72727C2.22727 12.4444 1.81818 12.0444 1.81818 11.5556V7.11111C1.81818 6.62222 2.22727 6.22222 2.72727 6.22222C3.22727 6.22222 3.63636 6.62222 3.63636 7.11111V10.6667H16.3636V7.11111C16.3636 6.62222 16.7727 6.22222 17.2727 6.22222C17.7727 6.22222 18.1818 6.62222 18.1818 7.11111V11.5556Z" fill="white"/>
</svg>
