<svg width="25" height="24" viewBox="0 0 25 24" fill="none" xmlns="http://www.w3.org/2000/svg">
<path d="M9.14453 6.935C8.71355 6.935 8.30023 7.1062 7.99548 7.41095C7.69074 7.7157 7.51953 8.12902 7.51953 8.56C7.51953 8.99097 7.69074 9.4043 7.99548 9.70905C8.30023 10.0138 8.71355 10.185 9.14453 10.185H9.15453C9.58551 10.185 9.99883 10.0138 10.3036 9.70905C10.6083 9.4043 10.7795 8.99097 10.7795 8.56C10.7795 8.12902 10.6083 7.7157 10.3036 7.41095C9.99883 7.1062 9.58551 6.935 9.15453 6.935H9.14453Z" fill="white"/>
<path d="M3.75 5.5C3.75 4.90326 3.98705 4.33097 4.40901 3.90901C4.83097 3.48705 5.40326 3.25 6 3.25H19C19.5967 3.25 20.169 3.48705 20.591 3.90901C21.0129 4.33097 21.25 4.90326 21.25 5.5V18.5C21.25 19.0967 21.0129 19.669 20.591 20.091C20.169 20.5129 19.5967 20.75 19 20.75H6C5.40326 20.75 4.83097 20.5129 4.40901 20.091C3.98705 19.669 3.75 19.0967 3.75 18.5V5.5ZM6 4.75C5.80109 4.75 5.61032 4.82902 5.46967 4.96967C5.32902 5.11032 5.25 5.30109 5.25 5.5V15.58L6.701 13.68C6.91164 13.4042 7.18323 13.1808 7.49454 13.0274C7.80584 12.874 8.14842 12.7946 8.49548 12.7956C8.84254 12.7966 9.18467 12.8778 9.49512 13.033C9.80556 13.1881 10.0759 13.413 10.285 13.69L11.5 15.3C11.5798 15.4058 11.6862 15.4885 11.8083 15.5398C11.9304 15.5911 12.064 15.6091 12.1954 15.5921C12.3267 15.575 12.4512 15.5234 12.5562 15.4426C12.6612 15.3618 12.7429 15.2546 12.793 15.132L14.771 10.285C15.438 8.65 17.643 8.385 18.677 9.817L19.75 11.301V5.5C19.75 5.30109 19.671 5.11032 19.5303 4.96967C19.3897 4.82902 19.1989 4.75 19 4.75H6ZM5.25 18.5C5.25 18.914 5.586 19.25 6 19.25H19C19.1989 19.25 19.3897 19.171 19.5303 19.0303C19.671 18.8897 19.75 18.6989 19.75 18.5V13.86L17.462 10.696C17.3836 10.5876 17.2776 10.5022 17.1551 10.4485C17.0326 10.3949 16.8979 10.375 16.7651 10.3909C16.6323 10.4068 16.5061 10.458 16.3997 10.539C16.2934 10.6201 16.2106 10.7282 16.16 10.852L14.182 15.698C13.522 17.314 11.355 17.597 10.303 16.204L9.088 14.594C9.01828 14.5016 8.92813 14.4266 8.8246 14.3749C8.72107 14.3232 8.60698 14.2961 8.49125 14.2958C8.37551 14.2955 8.26128 14.322 8.1575 14.3732C8.05371 14.4244 7.96318 14.499 7.893 14.591L5.401 17.855C5.35744 17.9108 5.30666 17.9606 5.25 18.003V18.5Z" fill="white"/>
</svg>
