<svg width="24" height="24" viewBox="0 0 24 24" fill="none" xmlns="http://www.w3.org/2000/svg">
  <!-- Building outline -->
  <rect x="4" y="6" width="16" height="14" rx="1" stroke="currentColor" stroke-width="1.5" fill="none"/>
  <!-- Roof -->
  <path d="M2 8l10-4 10 4v2H2V8z" stroke="currentColor" stroke-width="1.5" fill="none"/>
  <!-- Windows -->
  <rect x="6" y="9" width="2" height="2" fill="currentColor" opacity="0.6"/>
  <rect x="10" y="9" width="2" height="2" fill="currentColor" opacity="0.6"/>
  <rect x="16" y="9" width="2" height="2" fill="currentColor" opacity="0.6"/>
  <!-- Door -->
  <rect x="13" y="13" width="3" height="7" rx="0.5" stroke="currentColor" stroke-width="1" fill="none"/>
  <circle cx="15.2" cy="16" r="0.3" fill="currentColor"/>
  <!-- Chef hat symbol -->
  <ellipse cx="8" cy="15" rx="1.5" ry="0.8" fill="currentColor" opacity="0.4"/>
  <rect x="7" y="14" width="2" height="2" rx="1" fill="currentColor" opacity="0.6"/>
  <!-- Utensils -->
  <line x1="6.5" y1="17" x2="6.5" y2="19" stroke="currentColor" stroke-width="0.8"/>
  <line x1="9.5" y1="17" x2="9.5" y2="19" stroke="currentColor" stroke-width="0.8"/>
  <circle cx="6.5" cy="17" r="0.3" fill="currentColor"/>
  <path d="M9.2 17h0.6l-0.3-0.5z" fill="currentColor"/>
</svg>
