<svg width="24" height="24" viewBox="0 0 24 24" fill="none" xmlns="http://www.w3.org/2000/svg">
<g clip-path="url(#clip0_252_103)">
<path d="M13.8713 16.4558L0.638924 9.65838L0.594393 12.5643L13.8713 19.2195V16.4558ZM18.9183 11.3261L18.9 11.3251C18.8794 11.1711 18.8053 11.0341 18.6778 10.9136C18.5508 10.7936 18.412 10.7299 18.2625 10.7228L18.2602 10.7039C18.4097 10.711 18.533 10.6595 18.6291 10.5499C18.7256 10.4393 18.7636 10.3075 18.743 10.154L18.7613 10.1549C18.7819 10.3089 18.856 10.4459 18.983 10.5664C19.1105 10.6864 19.2488 10.7502 19.3988 10.7573L19.4011 10.7762C19.2516 10.7691 19.1283 10.8206 19.0317 10.9302C18.9356 11.0403 18.8977 11.1721 18.9183 11.3261ZM17.5341 12.0796L17.5158 12.0787C17.4952 11.9247 17.4211 11.7876 17.2936 11.6672C17.1666 11.5472 17.0278 11.4834 16.8783 11.4763L16.876 11.4574C17.0255 11.4645 17.1488 11.413 17.2449 11.3029C17.3414 11.1929 17.3794 11.061 17.3588 10.9075L17.377 10.9084C17.3977 11.0625 17.4717 11.1995 17.5988 11.3199C17.7263 11.4399 17.8645 11.5037 18.0141 11.5108L18.0169 11.5297C17.8669 11.5226 17.7441 11.5741 17.6475 11.6837C17.5514 11.7938 17.5135 11.9256 17.5341 12.0796ZM16.08 12.8903L16.0617 12.8894C16.0411 12.7354 15.9671 12.5983 15.84 12.4779C15.7125 12.3574 15.5738 12.2936 15.4242 12.287L15.4219 12.2681C15.5714 12.2752 15.6947 12.2237 15.7908 12.1136C15.8874 12.0036 15.9253 11.8713 15.9047 11.7182L15.923 11.7191C15.9436 11.8732 16.0177 12.0102 16.1447 12.1302C16.2717 12.2506 16.4105 12.3144 16.5605 12.3215L16.5628 12.3404C16.4133 12.3333 16.29 12.3848 16.1935 12.4944C16.0974 12.6045 16.0594 12.7363 16.08 12.8903ZM14.6953 13.6439L14.677 13.6429C14.6569 13.4889 14.5828 13.3514 14.4553 13.2314C14.3283 13.1109 14.1895 13.0472 14.04 13.0401L14.0372 13.0212C14.1872 13.0283 14.3105 12.9772 14.4066 12.8672C14.5031 12.7566 14.5411 12.6248 14.5205 12.4713L14.5388 12.4722C14.5594 12.6262 14.6335 12.7637 14.7605 12.8837C14.8875 13.0042 15.0263 13.068 15.1763 13.075L15.1786 13.0939C15.0286 13.0868 14.9058 13.1383 14.8092 13.2479C14.7131 13.3576 14.6752 13.4898 14.6953 13.6439ZM13.2497 14.4253L13.2314 14.4243C13.2108 14.2708 13.1367 14.1333 13.0097 14.0128C12.8827 13.8928 12.7439 13.829 12.5944 13.822L12.5916 13.8031C12.7416 13.8101 12.8644 13.7587 12.961 13.649C13.057 13.5385 13.095 13.4067 13.0749 13.2531L13.0927 13.2541C13.1133 13.4081 13.1874 13.5456 13.3149 13.6656C13.4419 13.7861 13.5806 13.8498 13.7302 13.8569L13.7325 13.8753C13.583 13.8683 13.4597 13.9198 13.3636 14.0294C13.267 14.1394 13.2291 14.2717 13.2497 14.4253ZM16.1663 9.86719L16.148 9.86625C16.1274 9.71223 16.0533 9.57476 15.9263 9.45476C15.7992 9.33429 15.6605 9.27051 15.511 9.26342L15.5081 9.245C15.6581 9.25208 15.781 9.20059 15.8775 9.09051C15.9736 8.98043 16.0116 8.84815 15.9914 8.69508L16.0097 8.69602C16.0299 8.85004 16.1039 8.98705 16.2314 9.10752C16.3585 9.22752 16.4972 9.29129 16.6467 9.29838L16.6495 9.31728C16.4995 9.31019 16.3763 9.36169 16.2802 9.47129C16.1836 9.58137 16.1456 9.71318 16.1663 9.86719ZM14.7821 10.6203L14.7638 10.6198C14.7431 10.4658 14.6691 10.3283 14.5421 10.2083C14.4146 10.0878 14.2763 10.024 14.1267 10.017L14.1239 9.99806C14.2739 10.0051 14.3967 9.95365 14.4933 9.84404C14.5894 9.73349 14.6274 9.60169 14.6067 9.44862L14.625 9.44909C14.6456 9.6031 14.7197 9.74058 14.8472 9.86058C14.9742 9.98105 15.113 10.0448 15.2625 10.0519L15.2649 10.0708C15.1153 10.0637 14.9921 10.1152 14.896 10.2248C14.7994 10.3344 14.7614 10.4667 14.7821 10.6203ZM13.4086 8.41304L13.3903 8.41209C13.3697 8.25808 13.2956 8.12107 13.1686 8.0006C13.0416 7.88013 12.9028 7.81635 12.7533 7.80926L12.7505 7.79084C12.9005 7.79792 13.0238 7.74643 13.1199 7.63635C13.216 7.52627 13.2544 7.39399 13.2338 7.24092L13.252 7.24139C13.2727 7.39541 13.3467 7.53289 13.4738 7.65289C13.6008 7.77336 13.7395 7.83714 13.8891 7.84422L13.8919 7.86312C13.7419 7.85603 13.6191 7.90753 13.5225 8.01713C13.4264 8.12674 13.388 8.25902 13.4086 8.41304ZM12.0244 9.16657L12.0061 9.16563C11.9855 9.01161 11.9114 8.87413 11.7844 8.75413C11.6574 8.63366 11.5186 8.56988 11.3691 8.5628L11.3663 8.54437C11.5163 8.55146 11.6391 8.49996 11.7356 8.38989C11.8317 8.27981 11.8697 8.14753 11.8495 7.99398L11.8674 7.99493C11.888 8.14894 11.9621 8.28642 12.0896 8.40642C12.2166 8.52689 12.3553 8.59067 12.5049 8.59776L12.5072 8.61666C12.3577 8.60957 12.2344 8.66059 12.1383 8.77067C12.0417 8.88027 12.0038 9.01256 12.0244 9.16657ZM10.6514 6.95888L10.6327 6.95793C10.612 6.80392 10.5385 6.66644 10.411 6.54644C10.2839 6.42597 10.1452 6.36219 9.99564 6.3551L9.99283 6.33668C10.1428 6.34376 10.2661 6.29227 10.3622 6.18219C10.4588 6.07211 10.4967 5.93983 10.4761 5.78676L10.4944 5.78771C10.515 5.94172 10.5891 6.07873 10.7161 6.1992C10.8431 6.3192 10.9819 6.38298 11.1314 6.39006L11.1342 6.40896C10.9842 6.40187 10.8614 6.45337 10.7649 6.56297C10.6688 6.67305 10.6308 6.80486 10.6514 6.95888ZM9.26674 7.71241L9.24846 7.71147C9.22783 7.55745 9.15424 7.41997 9.02674 7.29998C8.89971 7.1795 8.76096 7.11573 8.61142 7.10864L8.60861 7.08974C8.75861 7.09683 8.88189 7.04533 8.97799 6.93573C9.07455 6.82518 9.11252 6.69337 9.09189 6.5403L9.11017 6.54077C9.1308 6.69478 9.20486 6.83226 9.33189 6.95226C9.45892 7.07273 9.59767 7.13651 9.74721 7.1436L9.75002 7.1625C9.60002 7.15541 9.47674 7.20691 9.38064 7.31651C9.28408 7.42612 9.24611 7.5584 9.26674 7.71241ZM13.328 11.431L13.3097 11.43C13.2891 11.2765 13.215 11.139 13.088 11.0185C12.961 10.8985 12.8222 10.8347 12.6727 10.8277L12.6699 10.8088C12.8199 10.8158 12.9427 10.7644 13.0392 10.6547C13.1353 10.5442 13.1733 10.4124 13.1531 10.2588L13.1714 10.2598C13.192 10.4138 13.2656 10.5508 13.3931 10.6713C13.5202 10.7918 13.6589 10.8555 13.8085 10.8626L13.8108 10.881C13.6613 10.874 13.538 10.9255 13.4419 11.0351C13.3453 11.1451 13.3074 11.2769 13.328 11.431ZM11.9438 12.1845L11.9255 12.1835C11.9049 12.0295 11.8308 11.8925 11.7038 11.7721C11.5763 11.6521 11.438 11.5883 11.288 11.5812L11.2856 11.5623C11.4352 11.5694 11.5585 11.5179 11.655 11.4083C11.7511 11.2977 11.7891 11.1659 11.7685 11.0124L11.7867 11.0133C11.8074 11.1673 11.8814 11.3043 12.0089 11.4248C12.136 11.5448 12.2747 11.6086 12.4242 11.6157L12.4266 11.6346C12.2771 11.6275 12.1538 11.679 12.0577 11.7886C11.9611 11.8987 11.9231 12.0305 11.9438 12.1845ZM10.4981 12.9664L10.4799 12.9654C10.4592 12.8114 10.3852 12.6744 10.2581 12.5539C10.1306 12.4339 9.99236 12.3702 9.84236 12.3631L9.84002 12.3442C9.98955 12.3513 10.1128 12.2998 10.2089 12.1897C10.3055 12.0796 10.3435 11.9478 10.3228 11.7943L10.3411 11.7952C10.3617 11.9492 10.4358 12.0862 10.5628 12.2067C10.6903 12.3267 10.8286 12.3905 10.9786 12.3976L10.981 12.4165C10.8314 12.4094 10.7081 12.4609 10.6116 12.5705C10.5155 12.6806 10.4775 12.8124 10.4981 12.9664ZM10.5703 9.9768L10.552 9.97633C10.5314 9.82184 10.4578 9.68483 10.3303 9.56484C10.2033 9.44436 10.0645 9.38058 9.91502 9.3735L9.91221 9.3546C10.0622 9.36169 10.185 9.31019 10.2816 9.20059C10.3777 9.09004 10.4156 8.95823 10.3955 8.80468L10.4138 8.80563C10.4344 8.95964 10.5085 9.09712 10.6355 9.21712C10.7625 9.33759 10.9013 9.40137 11.0508 9.40846L11.0536 9.42736C10.9036 9.42027 10.7808 9.47129 10.6842 9.5809C10.5877 9.69098 10.5497 9.82279 10.5703 9.9768ZM9.18611 10.7303L9.16783 10.7294C9.14721 10.5754 9.07314 10.4384 8.94611 10.3179C8.81908 10.1979 8.68033 10.1341 8.5308 10.127L8.52799 10.1081C8.67799 10.1152 8.8008 10.0637 8.89736 9.95365C8.99346 9.84357 9.03142 9.71176 9.0108 9.55822L9.02908 9.55917C9.05017 9.71318 9.12377 9.85019 9.25127 9.97066C9.3783 10.0911 9.51705 10.1544 9.66658 10.1615L9.66892 10.1804C9.51939 10.1733 9.39611 10.2248 9.30002 10.3344C9.20345 10.4445 9.16549 10.5763 9.18611 10.7303ZM7.74049 11.5122L7.72221 11.5113C7.70158 11.3573 7.62752 11.2203 7.50049 11.0998C7.37299 10.9798 7.23471 10.916 7.08471 10.9089L7.08236 10.89C7.23189 10.8971 7.35517 10.8456 7.45174 10.7355C7.54783 10.6255 7.5858 10.4936 7.56517 10.3401L7.58346 10.341C7.60408 10.4951 7.67814 10.6321 7.80564 10.7525C7.93267 10.8725 8.07096 10.9363 8.22096 10.9434L8.2233 10.9623C8.07377 10.9552 7.95049 11.0067 7.85392 11.1163C7.75783 11.2264 7.71986 11.3582 7.74049 11.5122ZM7.81267 8.52264L7.79439 8.5217C7.77377 8.36815 7.70017 8.23067 7.57267 8.1102C7.44564 7.9902 7.30689 7.92643 7.15736 7.91934L7.15455 7.90044C7.30455 7.90753 7.42736 7.85603 7.52392 7.74643C7.62049 7.63588 7.65799 7.50407 7.63783 7.35053L7.65611 7.35147C7.67674 7.50549 7.7508 7.64249 7.87783 7.76296C8.00486 7.88343 8.14361 7.94721 8.29314 7.9543L8.29595 7.97272C8.14596 7.96564 8.02314 8.01713 7.92658 8.12674C7.83002 8.23682 7.79205 8.36863 7.81267 8.52264ZM6.42846 9.27618L6.41017 9.27523C6.38955 9.12122 6.31596 8.98421 6.18846 8.86374C6.06142 8.74374 5.92267 8.67996 5.77314 8.67288L5.77033 8.65398C5.92033 8.66106 6.04314 8.60957 6.13971 8.49996C6.2358 8.38941 6.27377 8.2576 6.25361 8.10406L6.27189 8.10501C6.29252 8.25902 6.36658 8.39603 6.49361 8.5165C6.62064 8.6365 6.75939 8.70028 6.90892 8.70736L6.91174 8.72626C6.76174 8.71917 6.63846 8.77067 6.54236 8.88027C6.4458 8.99035 6.40783 9.12216 6.42846 9.27618ZM4.98283 10.0581L4.96455 10.0571C4.94392 9.9031 4.86986 9.76609 4.74283 9.64562C4.61533 9.52562 4.47705 9.46137 4.32705 9.45476L4.32471 9.43586C4.47424 9.44295 4.59752 9.39145 4.69408 9.28137C4.79017 9.1713 4.82814 9.03949 4.80752 8.88594L4.8258 8.88689C4.84642 9.0409 4.92049 9.17791 5.04799 9.29838C5.17502 9.41838 5.3133 9.48216 5.4633 9.48924L5.46564 9.50814C5.31611 9.50106 5.19283 9.55255 5.09674 9.66216C5.00017 9.77223 4.96221 9.90404 4.98283 10.0581ZM14.4652 19.2177L23.4061 14.7149V11.7182L14.4652 16.4156V19.2177ZM0.102674 9.0598L0.107362 9.05035C0.138347 8.9883 0.189931 8.93915 0.253143 8.91146L9.80252 4.03213C9.88924 3.9882 9.98721 3.99103 10.0678 4.03119L23.7938 10.9434C23.9133 10.9821 24 11.0951 24 11.2288V14.8996C23.9999 14.9552 23.9844 15.0097 23.9554 15.057C23.9263 15.1043 23.8848 15.1425 23.8355 15.1675L14.3006 19.9693C14.2205 20.0085 14.1235 20.0118 14.0372 19.9693L0.164549 13.0155C0.11462 12.9904 0.0727044 12.9517 0.0436052 12.9038C0.014506 12.8558 -0.00059985 12.8005 1.82352e-05 12.7443L0.0539245 9.22043C0.0543932 9.1609 0.0726745 9.10563 0.102674 9.0598ZM1.02611 9.18594L14.13 15.9172L23.0433 11.234L9.93611 4.63307L1.02611 9.18594Z" fill="white"/>
</g>
<defs>
<clipPath id="clip0_252_103">
<rect width="24" height="16" fill="white" transform="translate(0 4)"/>
</clipPath>
</defs>
</svg>
