<svg width="24" height="24" viewBox="0 0 24 24" fill="none" xmlns="http://www.w3.org/2000/svg">
<path d="M18.6497 2.84994L19.2597 6.70994L22.7697 8.49994L20.9997 11.9999L22.7797 15.4999L19.2397 17.2899L18.6297 21.1499L14.7397 20.5399L11.9697 23.2999L9.18973 20.4999L5.32973 21.1399L4.70973 17.2499L1.21973 15.4699L2.99973 11.9699L1.22973 8.49994L4.73973 6.68994L5.34973 2.85994L9.21973 3.49994L11.9997 0.689941L14.7697 3.45994L18.6497 2.84994ZM9.49973 6.99994C9.1019 6.99994 8.72037 7.15798 8.43907 7.43928C8.15776 7.72059 7.99973 8.10212 7.99973 8.49994C7.99973 8.89777 8.15776 9.2793 8.43907 9.5606C8.72037 9.84191 9.1019 9.99994 9.49973 9.99994C9.89755 9.99994 10.2791 9.84191 10.5604 9.5606C10.8417 9.2793 10.9997 8.89777 10.9997 8.49994C10.9997 8.10212 10.8417 7.72059 10.5604 7.43928C10.2791 7.15798 9.89755 6.99994 9.49973 6.99994ZM14.4997 13.9999C14.1019 13.9999 13.7204 14.158 13.4391 14.4393C13.1578 14.7206 12.9997 15.1021 12.9997 15.4999C12.9997 15.8978 13.1578 16.2793 13.4391 16.5606C13.7204 16.8419 14.1019 16.9999 14.4997 16.9999C14.8976 16.9999 15.2791 16.8419 15.5604 16.5606C15.8417 16.2793 15.9997 15.8978 15.9997 15.4999C15.9997 15.1021 15.8417 14.7206 15.5604 14.4393C15.2791 14.158 14.8976 13.9999 14.4997 13.9999ZM8.40973 16.9999L16.9997 8.40994L15.5897 6.99994L6.99973 15.5899L8.40973 16.9999Z" fill="#C10000"/>
</svg>
