<svg width="18" height="18" viewBox="0 0 18 18" fill="none" xmlns="http://www.w3.org/2000/svg">
<path d="M12.4286 2H15.8571C16.1602 2 16.4509 2.10536 16.6653 2.29289C16.8796 2.48043 17 2.73478 17 3V15.5C17 15.7652 16.8796 16.0196 16.6653 16.2071C16.4509 16.3946 16.1602 16.5 15.8571 16.5H2.14286C1.83975 16.5 1.54906 16.3946 1.33474 16.2071C1.12041 16.0196 1 15.7652 1 15.5V3C1 2.73478 1.12041 2.48043 1.33474 2.29289C1.54906 2.10536 1.83975 2 2.14286 2H5.57143M5.57143 5H12.4286M6.71429 1V5H11.2857V1H6.71429Z" stroke="white" stroke-width="2" stroke-linecap="round" stroke-linejoin="round"/>
</svg>
